<?xml version="1.0" encoding="UTF-8"?><svg xmlns="http://www.w3.org/2000/svg" xmlns:xlink="http://www.w3.org/1999/xlink" fill-opacity="1" color-rendering="auto" color-interpolation="auto" text-rendering="auto" stroke="black" stroke-linecap="square" width="184" stroke-miterlimit="10" shape-rendering="auto" stroke-opacity="1" fill="black" stroke-dasharray="none" font-weight="normal" stroke-width="1" height="293" font-family="'Dialog'" font-style="normal" stroke-linejoin="miter" font-size="12px" stroke-dashoffset="0" image-rendering="auto">
  <!--Generated by ySVG 2.5-->
  <defs id="genericDefs"/>
  <g>
    <defs id="defs1">
      <clipPath clipPathUnits="userSpaceOnUse" id="clipPath1">
        <path d="M0 0 L184 0 L184 293 L0 293 L0 0 Z"/>
      </clipPath>
      <clipPath clipPathUnits="userSpaceOnUse" id="clipPath2">
        <path d="M102 105 L286 105 L286 398 L102 398 L102 105 Z"/>
      </clipPath>
    </defs>
    <g fill="rgb(255,255,153)" text-rendering="geometricPrecision" shape-rendering="geometricPrecision" transform="matrix(1,0,0,1,-102,-105)" stroke="rgb(255,255,153)">
      <path d="M157 140 L197 160 L157 180 L117 160 Z" stroke="none" clip-path="url(#clipPath2)"/>
    </g>
    <g text-rendering="geometricPrecision" stroke-miterlimit="1.45" shape-rendering="geometricPrecision" transform="matrix(1,0,0,1,-102,-105)" stroke-linecap="butt">
      <path fill="none" d="M157 140 L197 160 L157 180 L117 160 Z" clip-path="url(#clipPath2)"/>
      <text x="130.9404" xml:space="preserve" y="164.5352" clip-path="url(#clipPath2)" font-family="sans-serif" stroke="none">Kondisi ?</text>
    </g>
    <g fill="rgb(255,255,153)" text-rendering="geometricPrecision" shape-rendering="geometricPrecision" transform="matrix(1,0,0,1,-102,-105)" stroke="rgb(255,255,153)">
      <path d="M117 241.5 L197 241.5 L197 281.5 L117 281.5 Z" stroke="none" clip-path="url(#clipPath2)"/>
    </g>
    <g text-rendering="geometricPrecision" stroke-miterlimit="1.45" shape-rendering="geometricPrecision" transform="matrix(1,0,0,1,-102,-105)" stroke-linecap="butt">
      <path fill="none" d="M117 241.5 L197 241.5 L197 281.5 L117 281.5 Z" clip-path="url(#clipPath2)"/>
      <text x="132.8711" xml:space="preserve" y="266.0352" clip-path="url(#clipPath2)" font-family="sans-serif" stroke="none">Proses a</text>
    </g>
    <g fill="rgb(255,255,153)" text-rendering="geometricPrecision" shape-rendering="geometricPrecision" transform="matrix(1,0,0,1,-102,-105)" stroke="rgb(255,255,153)">
      <rect x="117" y="343" clip-path="url(#clipPath2)" width="80" rx="20" ry="20" height="40" stroke="none"/>
    </g>
    <g text-rendering="geometricPrecision" stroke-miterlimit="1.45" shape-rendering="geometricPrecision" transform="matrix(1,0,0,1,-102,-105)" stroke-linecap="butt">
      <rect x="117" y="343" clip-path="url(#clipPath2)" fill="none" width="80" rx="20" ry="20" height="40"/>
    </g>
    <g text-rendering="geometricPrecision" stroke-miterlimit="1.45" shape-rendering="geometricPrecision" transform="matrix(1,0,0,1,-102,-105)" stroke-linecap="butt">
      <path fill="none" d="M157 179.9729 L157 233.4765" clip-path="url(#clipPath2)"/>
    </g>
    <g text-rendering="geometricPrecision" stroke-miterlimit="1.45" shape-rendering="geometricPrecision" transform="matrix(1,0,0,1,-102,-105)" stroke-linecap="butt">
      <path d="M157 241.4765 L162 229.4765 L157 232.4765 L152 229.4765 Z" stroke="none" clip-path="url(#clipPath2)"/>
      <text x="123.2061" xml:space="preserve" y="215.2852" clip-path="url(#clipPath2)" font-family="sans-serif" stroke="none">T</text>
      <path fill="none" d="M157 281.4729 L157 334.9765" clip-path="url(#clipPath2)"/>
      <path d="M157 342.9765 L162 330.9765 L157 333.9765 L152 330.9765 Z" clip-path="url(#clipPath2)" stroke="none"/>
      <path fill="none" d="M196.9946 160 L271 160 L271 363 L204.9946 363" clip-path="url(#clipPath2)"/>
      <path d="M196.9946 363 L208.9946 368 L205.9946 363 L208.9946 358 Z" clip-path="url(#clipPath2)" stroke="none"/>
      <text x="235.8916" xml:space="preserve" y="134.5352" clip-path="url(#clipPath2)" font-family="sans-serif" stroke="none">F</text>
    </g>
  </g>
</svg>
