<?xml version="1.0" encoding="UTF-8"?><svg xmlns="http://www.w3.org/2000/svg" xmlns:xlink="http://www.w3.org/1999/xlink" fill-opacity="1" color-rendering="auto" color-interpolation="auto" text-rendering="auto" stroke="black" stroke-linecap="square" width="110" stroke-miterlimit="10" shape-rendering="auto" stroke-opacity="1" fill="black" stroke-dasharray="none" font-weight="normal" stroke-width="1" height="250" font-family="'Dialog'" font-style="normal" stroke-linejoin="miter" font-size="12px" stroke-dashoffset="0" image-rendering="auto">
  <!--Generated by ySVG 2.5-->
  <defs id="genericDefs"/>
  <g>
    <defs id="defs1">
      <clipPath clipPathUnits="userSpaceOnUse" id="clipPath1">
        <path d="M0 0 L110 0 L110 250 L0 250 L0 0 Z"/>
      </clipPath>
      <clipPath clipPathUnits="userSpaceOnUse" id="clipPath2">
        <path d="M93 100 L203 100 L203 350 L93 350 L93 100 Z"/>
      </clipPath>
    </defs>
    <g fill="rgb(255,255,153)" text-rendering="geometricPrecision" shape-rendering="geometricPrecision" transform="matrix(1,0,0,1,-93,-100)" stroke="rgb(255,255,153)">
      <path d="M108 115 L188 115 L188 155 L108 155 Z" stroke="none" clip-path="url(#clipPath2)"/>
    </g>
    <g text-rendering="geometricPrecision" stroke-miterlimit="1.45" shape-rendering="geometricPrecision" transform="matrix(1,0,0,1,-93,-100)" stroke-linecap="butt">
      <path fill="none" d="M108 115 L188 115 L188 155 L108 155 Z" clip-path="url(#clipPath2)"/>
      <text x="123.8711" xml:space="preserve" y="139.5352" clip-path="url(#clipPath2)" font-family="sans-serif" stroke="none">Proses a</text>
    </g>
    <g fill="rgb(255,255,153)" text-rendering="geometricPrecision" shape-rendering="geometricPrecision" transform="matrix(1,0,0,1,-93,-100)" stroke="rgb(255,255,153)">
      <path d="M108 208 L188 208 L188 248 L108 248 Z" stroke="none" clip-path="url(#clipPath2)"/>
    </g>
    <g text-rendering="geometricPrecision" stroke-miterlimit="1.45" shape-rendering="geometricPrecision" transform="matrix(1,0,0,1,-93,-100)" stroke-linecap="butt">
      <path fill="none" d="M108 208 L188 208 L188 248 L108 248 Z" clip-path="url(#clipPath2)"/>
      <text x="123.4082" xml:space="preserve" y="232.5352" clip-path="url(#clipPath2)" font-family="sans-serif" stroke="none">Proses b</text>
    </g>
    <g fill="rgb(255,255,153)" text-rendering="geometricPrecision" shape-rendering="geometricPrecision" transform="matrix(1,0,0,1,-93,-100)" stroke="rgb(255,255,153)">
      <path d="M108 295 L188 295 L188 335 L108 335 Z" stroke="none" clip-path="url(#clipPath2)"/>
    </g>
    <g text-rendering="geometricPrecision" stroke-miterlimit="1.45" shape-rendering="geometricPrecision" transform="matrix(1,0,0,1,-93,-100)" stroke-linecap="butt">
      <path fill="none" d="M108 295 L188 295 L188 335 L108 335 Z" clip-path="url(#clipPath2)"/>
      <text x="124.1113" xml:space="preserve" y="319.5352" clip-path="url(#clipPath2)" font-family="sans-serif" stroke="none">Proses c</text>
    </g>
    <g text-rendering="geometricPrecision" stroke-miterlimit="1.45" shape-rendering="geometricPrecision" transform="matrix(1,0,0,1,-93,-100)" stroke-linecap="butt">
      <path fill="none" d="M148 155.0259 L148 200.0105" clip-path="url(#clipPath2)"/>
    </g>
    <g text-rendering="geometricPrecision" stroke-miterlimit="1.45" shape-rendering="geometricPrecision" transform="matrix(1,0,0,1,-93,-100)" stroke-linecap="butt">
      <path d="M148 208.0105 L153 196.0105 L148 199.0105 L143 196.0105 Z" stroke="none" clip-path="url(#clipPath2)"/>
      <path fill="none" d="M148 248.0083 L148 287.0137" clip-path="url(#clipPath2)"/>
      <path d="M148 295.0137 L153 283.0137 L148 286.0137 L143 283.0137 Z" clip-path="url(#clipPath2)" stroke="none"/>
    </g>
  </g>
</svg>
