<?xml version="1.0" encoding="UTF-8"?><svg xmlns="http://www.w3.org/2000/svg" xmlns:xlink="http://www.w3.org/1999/xlink" fill-opacity="1" color-rendering="auto" color-interpolation="auto" text-rendering="auto" stroke="black" stroke-linecap="square" width="270" stroke-miterlimit="10" shape-rendering="auto" stroke-opacity="1" fill="black" stroke-dasharray="none" font-weight="normal" stroke-width="1" height="408" font-family="'Dialog'" font-style="normal" stroke-linejoin="miter" font-size="12px" stroke-dashoffset="0" image-rendering="auto">
  <!--Generated by ySVG 2.5-->
  <defs id="genericDefs"/>
  <g>
    <defs id="defs1">
      <clipPath clipPathUnits="userSpaceOnUse" id="clipPath1">
        <path d="M0 0 L270 0 L270 408 L0 408 L0 0 Z"/>
      </clipPath>
      <clipPath clipPathUnits="userSpaceOnUse" id="clipPath2">
        <path d="M45 62 L315 62 L315 470 L45 470 L45 62 Z"/>
      </clipPath>
    </defs>
    <g fill="rgb(255,255,153)" text-rendering="geometricPrecision" shape-rendering="geometricPrecision" transform="matrix(1,0,0,1,-45,-62)" stroke="rgb(255,255,153)">
      <rect x="140" y="77" clip-path="url(#clipPath2)" width="80" rx="20" ry="20" height="40" stroke="none"/>
    </g>
    <g text-rendering="geometricPrecision" stroke-miterlimit="1.45" shape-rendering="geometricPrecision" transform="matrix(1,0,0,1,-45,-62)" stroke-linecap="butt">
      <rect x="140" y="77" clip-path="url(#clipPath2)" fill="none" width="80" rx="20" ry="20" height="40"/>
      <text x="166.5117" xml:space="preserve" y="101.5352" clip-path="url(#clipPath2)" font-family="sans-serif" stroke="none">Start</text>
    </g>
    <g fill="rgb(255,255,153)" text-rendering="geometricPrecision" shape-rendering="geometricPrecision" transform="matrix(1,0,0,1,-45,-62)" stroke="rgb(255,255,153)">
      <path d="M145.3 152 L230 152 L214.7 212 L130 212 Z" stroke="none" clip-path="url(#clipPath2)"/>
    </g>
    <g text-rendering="geometricPrecision" stroke-miterlimit="1.45" shape-rendering="geometricPrecision" transform="matrix(1,0,0,1,-45,-62)" stroke-linecap="butt">
      <path fill="none" d="M145.3 152 L230 152 L214.7 212 L130 212 Z" clip-path="url(#clipPath2)"/>
      <text x="164.8037" xml:space="preserve" y="172.4023" clip-path="url(#clipPath2)" font-family="sans-serif" stroke="none">Input</text>
      <text x="151.2393" xml:space="preserve" y="186.5352" clip-path="url(#clipPath2)" font-family="sans-serif" stroke="none">suhu-min</text>
      <text x="149.7041" xml:space="preserve" y="200.668" clip-path="url(#clipPath2)" font-family="sans-serif" stroke="none">suhu-max</text>
    </g>
    <g fill="rgb(255,255,153)" text-rendering="geometricPrecision" shape-rendering="geometricPrecision" transform="matrix(1,0,0,1,-45,-62)" stroke="rgb(255,255,153)">
      <path d="M60 247 L300 247 L300 287 L60 287 Z" stroke="none" clip-path="url(#clipPath2)"/>
    </g>
    <g text-rendering="geometricPrecision" stroke-miterlimit="1.45" shape-rendering="geometricPrecision" transform="matrix(1,0,0,1,-45,-62)" stroke-linecap="butt">
      <path fill="none" d="M60 247 L300 247 L300 287 L60 287 Z" clip-path="url(#clipPath2)"/>
      <text x="63.0469" xml:space="preserve" y="271.5352" clip-path="url(#clipPath2)" font-family="sans-serif" stroke="none">rata-rata = (suhu-min + suhu-max) / 2</text>
    </g>
    <g fill="rgb(255,255,153)" text-rendering="geometricPrecision" shape-rendering="geometricPrecision" transform="matrix(1,0,0,1,-45,-62)" stroke="rgb(255,255,153)">
      <path d="M130.2 331 L240 331 L229.8 371 L120 371 Z" stroke="none" clip-path="url(#clipPath2)"/>
    </g>
    <g text-rendering="geometricPrecision" stroke-miterlimit="1.45" shape-rendering="geometricPrecision" transform="matrix(1,0,0,1,-45,-62)" stroke-linecap="butt">
      <path fill="none" d="M130.2 331 L240 331 L229.8 371 L120 371 Z" clip-path="url(#clipPath2)"/>
      <text x="131.6045" xml:space="preserve" y="355.5352" clip-path="url(#clipPath2)" font-family="sans-serif" stroke="none">Output rata-rata</text>
    </g>
    <g fill="rgb(255,255,153)" text-rendering="geometricPrecision" shape-rendering="geometricPrecision" transform="matrix(1,0,0,1,-45,-62)" stroke="rgb(255,255,153)">
      <rect x="140" y="415" clip-path="url(#clipPath2)" width="80" rx="20" ry="20" height="40" stroke="none"/>
    </g>
    <g text-rendering="geometricPrecision" stroke-miterlimit="1.45" shape-rendering="geometricPrecision" transform="matrix(1,0,0,1,-45,-62)" stroke-linecap="butt">
      <rect x="140" y="415" clip-path="url(#clipPath2)" fill="none" width="80" rx="20" ry="20" height="40"/>
      <text x="167.0625" xml:space="preserve" y="439.5352" clip-path="url(#clipPath2)" font-family="sans-serif" stroke="none">Stop</text>
    </g>
    <g text-rendering="geometricPrecision" stroke-miterlimit="1.45" shape-rendering="geometricPrecision" transform="matrix(1,0,0,1,-45,-62)" stroke-linecap="butt">
      <path fill="none" d="M180 116.9634 L180 143.9904" clip-path="url(#clipPath2)"/>
    </g>
    <g text-rendering="geometricPrecision" stroke-miterlimit="1.45" shape-rendering="geometricPrecision" transform="matrix(1,0,0,1,-45,-62)" stroke-linecap="butt">
      <path d="M180 151.9904 L185 139.9904 L180 142.9904 L175 139.9904 Z" stroke="none" clip-path="url(#clipPath2)"/>
      <path fill="none" d="M180 212.0073 L180 238.9953" clip-path="url(#clipPath2)"/>
      <path d="M180 246.9953 L185 234.9953 L180 237.9953 L175 234.9953 Z" clip-path="url(#clipPath2)" stroke="none"/>
      <path fill="none" d="M180 286.9746 L180 323.0233" clip-path="url(#clipPath2)"/>
      <path d="M180 331.0233 L185 319.0233 L180 322.0233 L175 319.0233 Z" clip-path="url(#clipPath2)" stroke="none"/>
      <path fill="none" d="M180 370.9746 L180 407.0233" clip-path="url(#clipPath2)"/>
      <path d="M180 415.0233 L185 403.0233 L180 406.0233 L175 403.0233 Z" clip-path="url(#clipPath2)" stroke="none"/>
    </g>
  </g>
</svg>
