<?xml version="1.0" encoding="UTF-8"?><svg xmlns="http://www.w3.org/2000/svg" xmlns:xlink="http://www.w3.org/1999/xlink" fill-opacity="1" color-rendering="auto" color-interpolation="auto" text-rendering="auto" stroke="black" stroke-linecap="square" width="170" stroke-miterlimit="10" shape-rendering="auto" stroke-opacity="1" fill="black" stroke-dasharray="none" font-weight="normal" stroke-width="1" height="359" font-family="'Dialog'" font-style="normal" stroke-linejoin="miter" font-size="12px" stroke-dashoffset="0" image-rendering="auto">
  <!--Generated by ySVG 2.5-->
  <defs id="genericDefs"/>
  <g>
    <defs id="defs1">
      <linearGradient x1="197" gradientUnits="userSpaceOnUse" x2="277" y1="45" y2="85" id="linearGradient1" spreadMethod="reflect">
        <stop stop-opacity="1" stop-color="rgb(232,238,247)" offset="0%"/>
        <stop stop-opacity="1" stop-color="rgb(183,201,227)" offset="100%"/>
      </linearGradient>
      <linearGradient x1="197" gradientUnits="userSpaceOnUse" x2="277" y1="334" y2="374" id="linearGradient2" spreadMethod="reflect">
        <stop stop-opacity="1" stop-color="rgb(232,238,247)" offset="0%"/>
        <stop stop-opacity="1" stop-color="rgb(183,201,227)" offset="100%"/>
      </linearGradient>
      <linearGradient x1="187" gradientUnits="userSpaceOnUse" x2="287" y1="262" y2="309" id="linearGradient3" spreadMethod="reflect">
        <stop stop-opacity="1" stop-color="rgb(232,238,247)" offset="0%"/>
        <stop stop-opacity="1" stop-color="rgb(183,201,227)" offset="100%"/>
      </linearGradient>
      <linearGradient x1="197" gradientUnits="userSpaceOnUse" x2="277" y1="185" y2="232" id="linearGradient4" spreadMethod="reflect">
        <stop stop-opacity="1" stop-color="rgb(232,238,247)" offset="0%"/>
        <stop stop-opacity="1" stop-color="rgb(183,201,227)" offset="100%"/>
      </linearGradient>
      <linearGradient x1="167" gradientUnits="userSpaceOnUse" x2="307" y1="115" y2="162" id="linearGradient5" spreadMethod="reflect">
        <stop stop-opacity="1" stop-color="rgb(232,238,247)" offset="0%"/>
        <stop stop-opacity="1" stop-color="rgb(183,201,227)" offset="100%"/>
      </linearGradient>
      <clipPath clipPathUnits="userSpaceOnUse" id="clipPath1">
        <path d="M0 0 L170 0 L170 359 L0 359 L0 0 Z"/>
      </clipPath>
      <clipPath clipPathUnits="userSpaceOnUse" id="clipPath2">
        <path d="M152 30 L322 30 L322 389 L152 389 L152 30 Z"/>
      </clipPath>
    </defs>
    <g fill="url(#linearGradient1)" text-rendering="geometricPrecision" shape-rendering="geometricPrecision" transform="matrix(1,0,0,1,-152,-30)" stroke="url(#linearGradient1)">
      <ellipse rx="40" ry="20" clip-path="url(#clipPath2)" cx="237" cy="65" stroke="none"/>
    </g>
    <g text-rendering="geometricPrecision" stroke-miterlimit="1.45" shape-rendering="geometricPrecision" transform="matrix(1,0,0,1,-152,-30)" stroke-linecap="butt">
      <ellipse rx="40" fill="none" ry="20" clip-path="url(#clipPath2)" cx="237" cy="65"/>
      <text x="221.25" xml:space="preserve" y="69.7725" clip-path="url(#clipPath2)" font-family="sans-serif" stroke="none">Mulai</text>
    </g>
    <g fill="url(#linearGradient2)" text-rendering="geometricPrecision" shape-rendering="geometricPrecision" transform="matrix(1,0,0,1,-152,-30)" stroke="url(#linearGradient2)">
      <ellipse rx="40" ry="20" clip-path="url(#clipPath2)" cx="237" cy="354" stroke="none"/>
    </g>
    <g text-rendering="geometricPrecision" stroke-miterlimit="1.45" shape-rendering="geometricPrecision" transform="matrix(1,0,0,1,-152,-30)" stroke-linecap="butt">
      <ellipse rx="40" fill="none" ry="20" clip-path="url(#clipPath2)" cx="237" cy="354"/>
      <text x="215.7275" xml:space="preserve" y="358.7725" clip-path="url(#clipPath2)" font-family="sans-serif" stroke="none">Selesai</text>
    </g>
    <g fill="url(#linearGradient3)" text-rendering="geometricPrecision" shape-rendering="geometricPrecision" transform="matrix(1,0,0,1,-152,-30)" stroke="url(#linearGradient3)">
      <path d="M198.985 262 L287 262 L275.015 309 L187 309 Z" stroke="none" clip-path="url(#clipPath2)"/>
    </g>
    <g text-rendering="geometricPrecision" stroke-miterlimit="1.45" shape-rendering="geometricPrecision" transform="matrix(1,0,0,1,-152,-30)" stroke-linecap="butt">
      <path fill="none" d="M198.985 262 L287 262 L275.015 309 L187 309 Z" clip-path="url(#clipPath2)"/>
      <text x="204.3428" xml:space="preserve" y="275.6885" clip-path="url(#clipPath2)" font-family="sans-serif" stroke="none">output bil1</text>
      <text x="204.3428" xml:space="preserve" y="290.2725" clip-path="url(#clipPath2)" font-family="sans-serif" stroke="none">output bil2</text>
      <text x="211.6875" xml:space="preserve" y="304.8564" clip-path="url(#clipPath2)" font-family="sans-serif" stroke="none">            </text>
    </g>
    <g fill="url(#linearGradient4)" text-rendering="geometricPrecision" shape-rendering="geometricPrecision" transform="matrix(1,0,0,1,-152,-30)" stroke="url(#linearGradient4)">
      <path d="M197 185 L277 185 L277 232 L197 232 Z" stroke="none" clip-path="url(#clipPath2)"/>
    </g>
    <g text-rendering="geometricPrecision" stroke-miterlimit="1.45" shape-rendering="geometricPrecision" transform="matrix(1,0,0,1,-152,-30)" stroke-linecap="butt">
      <path fill="none" d="M197 185 L277 185 L277 232 L197 232 Z" clip-path="url(#clipPath2)"/>
      <text x="201.2695" xml:space="preserve" y="205.9805" clip-path="url(#clipPath2)" font-family="sans-serif" stroke="none">bil2 += bil1</text>
      <text x="211.6875" xml:space="preserve" y="220.5645" clip-path="url(#clipPath2)" font-family="sans-serif" stroke="none">            </text>
    </g>
    <g fill="url(#linearGradient5)" text-rendering="geometricPrecision" shape-rendering="geometricPrecision" transform="matrix(1,0,0,1,-152,-30)" stroke="url(#linearGradient5)">
      <path d="M178.75 115 L295.25 115 L307 138.5 L295.25 162 L178.75 162 L167 138.5 Z" stroke="none" clip-path="url(#clipPath2)"/>
    </g>
    <g text-rendering="geometricPrecision" stroke-miterlimit="1.45" shape-rendering="geometricPrecision" transform="matrix(1,0,0,1,-152,-30)" stroke-linecap="butt">
      <path fill="none" d="M178.75 115 L295.25 115 L307 138.5 L295.25 162 L178.75 162 L167 138.5 Z" clip-path="url(#clipPath2)"/>
      <text x="203.2939" xml:space="preserve" y="128.6885" clip-path="url(#clipPath2)" font-family="sans-serif" stroke="none">int bil1 = 5</text>
      <text x="203.2939" xml:space="preserve" y="143.2725" clip-path="url(#clipPath2)" font-family="sans-serif" stroke="none">int bil2 = 1</text>
      <text x="211.6875" xml:space="preserve" y="157.8564" clip-path="url(#clipPath2)" font-family="sans-serif" stroke="none">            </text>
    </g>
    <g text-rendering="geometricPrecision" stroke-miterlimit="1.45" shape-rendering="geometricPrecision" transform="matrix(1,0,0,1,-152,-30)" stroke-linecap="butt">
      <path fill="none" d="M237 309.0134 L237 326.0109" clip-path="url(#clipPath2)"/>
    </g>
    <g text-rendering="geometricPrecision" stroke-miterlimit="1.45" shape-rendering="geometricPrecision" transform="matrix(1,0,0,1,-152,-30)" stroke-linecap="butt">
      <path d="M237 334.0109 L242 322.0109 L237 325.0109 L232 322.0109 Z" stroke="none" clip-path="url(#clipPath2)"/>
      <path fill="none" d="M237 231.9985 L237 254.0147" clip-path="url(#clipPath2)"/>
      <path d="M237 262.0147 L242 250.0147 L237 253.0147 L232 250.0147 Z" clip-path="url(#clipPath2)" stroke="none"/>
      <path fill="none" d="M237 84.99 L237 107.011" clip-path="url(#clipPath2)"/>
      <path d="M237 115.011 L242 103.011 L237 106.011 L232 103.011 Z" clip-path="url(#clipPath2)" stroke="none"/>
      <path fill="none" d="M237 161.9814 L237 177.0136" clip-path="url(#clipPath2)"/>
      <path d="M237 185.0136 L242 173.0136 L237 176.0136 L232 173.0136 Z" clip-path="url(#clipPath2)" stroke="none"/>
    </g>
  </g>
</svg>
