<?xml version="1.0" encoding="UTF-8"?><svg xmlns="http://www.w3.org/2000/svg" xmlns:xlink="http://www.w3.org/1999/xlink" fill-opacity="1" color-rendering="auto" color-interpolation="auto" text-rendering="auto" stroke="black" stroke-linecap="square" width="341" stroke-miterlimit="10" shape-rendering="auto" stroke-opacity="1" fill="black" stroke-dasharray="none" font-weight="normal" stroke-width="1" height="349" font-family="'Dialog'" font-style="normal" stroke-linejoin="miter" font-size="12px" stroke-dashoffset="0" image-rendering="auto">
  <!--Generated by ySVG 2.5-->
  <defs id="genericDefs"/>
  <g>
    <defs id="defs1">
      <linearGradient x1="317.8" gradientUnits="userSpaceOnUse" x2="397.8" y1="43.2" y2="83.2" id="linearGradient1" spreadMethod="reflect">
        <stop stop-opacity="1" stop-color="rgb(232,238,247)" offset="0%"/>
        <stop stop-opacity="1" stop-color="rgb(183,201,227)" offset="100%"/>
      </linearGradient>
      <linearGradient x1="455.8" gradientUnits="userSpaceOnUse" x2="553.4" y1="176.4" y2="216.4" id="linearGradient2" spreadMethod="reflect">
        <stop stop-opacity="1" stop-color="rgb(232,238,247)" offset="0%"/>
        <stop stop-opacity="1" stop-color="rgb(183,201,227)" offset="100%"/>
      </linearGradient>
      <linearGradient x1="427.8" gradientUnits="userSpaceOnUse" x2="581.4" y1="91.6" y2="142" id="linearGradient3" spreadMethod="reflect">
        <stop stop-opacity="1" stop-color="rgb(232,238,247)" offset="0%"/>
        <stop stop-opacity="1" stop-color="rgb(183,201,227)" offset="100%"/>
      </linearGradient>
      <linearGradient x1="317.8" gradientUnits="userSpaceOnUse" x2="397.8" y1="102" y2="142" id="linearGradient4" spreadMethod="reflect">
        <stop stop-opacity="1" stop-color="rgb(232,238,247)" offset="0%"/>
        <stop stop-opacity="1" stop-color="rgb(183,201,227)" offset="100%"/>
      </linearGradient>
      <linearGradient x1="464.6" gradientUnits="userSpaceOnUse" x2="544.6" y1="309.6" y2="349.6" id="linearGradient5" spreadMethod="reflect">
        <stop stop-opacity="1" stop-color="rgb(232,238,247)" offset="0%"/>
        <stop stop-opacity="1" stop-color="rgb(183,201,227)" offset="100%"/>
      </linearGradient>
      <linearGradient x1="464.6" gradientUnits="userSpaceOnUse" x2="544.6" y1="239.6" y2="279.6" id="linearGradient6" spreadMethod="reflect">
        <stop stop-opacity="1" stop-color="rgb(232,238,247)" offset="0%"/>
        <stop stop-opacity="1" stop-color="rgb(183,201,227)" offset="100%"/>
      </linearGradient>
      <linearGradient x1="317.8" gradientUnits="userSpaceOnUse" x2="397.8" y1="165.4" y2="205.4" id="linearGradient7" spreadMethod="reflect">
        <stop stop-opacity="1" stop-color="rgb(232,238,247)" offset="0%"/>
        <stop stop-opacity="1" stop-color="rgb(183,201,227)" offset="100%"/>
      </linearGradient>
      <linearGradient x1="464.6" gradientUnits="userSpaceOnUse" x2="544.6" y1="31.6" y2="71.6" id="linearGradient8" spreadMethod="reflect">
        <stop stop-opacity="1" stop-color="rgb(232,238,247)" offset="0%"/>
        <stop stop-opacity="1" stop-color="rgb(183,201,227)" offset="100%"/>
      </linearGradient>
      <linearGradient x1="317.8" gradientUnits="userSpaceOnUse" x2="397.8" y1="235.4" y2="275.4" id="linearGradient9" spreadMethod="reflect">
        <stop stop-opacity="1" stop-color="rgb(232,238,247)" offset="0%"/>
        <stop stop-opacity="1" stop-color="rgb(183,201,227)" offset="100%"/>
      </linearGradient>
      <clipPath clipPathUnits="userSpaceOnUse" id="clipPath1">
        <path d="M0 0 L341 0 L341 349 L0 349 L0 0 Z"/>
      </clipPath>
      <clipPath clipPathUnits="userSpaceOnUse" id="clipPath2">
        <path d="M302 16 L643 16 L643 365 L302 365 L302 16 Z"/>
      </clipPath>
    </defs>
    <g fill="url(#linearGradient1)" text-rendering="geometricPrecision" shape-rendering="geometricPrecision" transform="matrix(1,0,0,1,-302,-16)" stroke="url(#linearGradient1)">
      <ellipse rx="40" ry="20" clip-path="url(#clipPath2)" cx="357.8" cy="63.2" stroke="none"/>
    </g>
    <g text-rendering="geometricPrecision" stroke-miterlimit="1.45" shape-rendering="geometricPrecision" transform="matrix(1,0,0,1,-302,-16)" stroke-linecap="butt">
      <ellipse rx="40" fill="none" ry="20" clip-path="url(#clipPath2)" cx="357.8" cy="63.2"/>
      <text x="342.05" xml:space="preserve" y="67.9725" clip-path="url(#clipPath2)" font-family="sans-serif" stroke="none">Mulai</text>
    </g>
    <g fill="url(#linearGradient2)" text-rendering="geometricPrecision" shape-rendering="geometricPrecision" transform="matrix(1,0,0,1,-302,-16)" stroke="url(#linearGradient2)">
      <path d="M455.8 176.4 L553.4 176.4 L553.4 216.4 L455.8 216.4 Z" stroke="none" clip-path="url(#clipPath2)"/>
    </g>
    <g text-rendering="geometricPrecision" stroke-miterlimit="1.45" shape-rendering="geometricPrecision" transform="matrix(1,0,0,1,-302,-16)" stroke-linecap="butt">
      <path fill="none" d="M455.8 176.4 L553.4 176.4 L553.4 216.4 L455.8 216.4 Z" clip-path="url(#clipPath2)"/>
      <text x="463.4438" xml:space="preserve" y="201.1725" clip-path="url(#clipPath2)" font-family="sans-serif" stroke="none">number += 1</text>
    </g>
    <g fill="url(#linearGradient3)" text-rendering="geometricPrecision" shape-rendering="geometricPrecision" transform="matrix(1,0,0,1,-302,-16)" stroke="url(#linearGradient3)">
      <path d="M504.6 91.6 L581.4 116.8 L504.6 142 L427.8 116.8 Z" stroke="none" clip-path="url(#clipPath2)"/>
    </g>
    <g text-rendering="geometricPrecision" stroke-miterlimit="1.45" shape-rendering="geometricPrecision" transform="matrix(1,0,0,1,-302,-16)" stroke-linecap="butt">
      <path fill="none" d="M504.6 91.6 L581.4 116.8 L504.6 142 L427.8 116.8 Z" clip-path="url(#clipPath2)"/>
      <text x="448.9535" xml:space="preserve" y="121.5725" clip-path="url(#clipPath2)" font-family="sans-serif" stroke="none">number % 2 == 0</text>
    </g>
    <g fill="url(#linearGradient4)" text-rendering="geometricPrecision" shape-rendering="geometricPrecision" transform="matrix(1,0,0,1,-302,-16)" stroke="url(#linearGradient4)">
      <path d="M327.8 102 L387.8 102 L397.8 122 L387.8 142 L327.8 142 L317.8 122 Z" stroke="none" clip-path="url(#clipPath2)"/>
    </g>
    <g text-rendering="geometricPrecision" stroke-miterlimit="1.45" shape-rendering="geometricPrecision" transform="matrix(1,0,0,1,-302,-16)" stroke-linecap="butt">
      <path fill="none" d="M327.8 102 L387.8 102 L397.8 122 L387.8 142 L327.8 142 L317.8 122 Z" clip-path="url(#clipPath2)"/>
      <text x="324.5803" xml:space="preserve" y="126.7725" clip-path="url(#clipPath2)" font-family="sans-serif" stroke="none">int number</text>
    </g>
    <g fill="url(#linearGradient5)" text-rendering="geometricPrecision" shape-rendering="geometricPrecision" transform="matrix(1,0,0,1,-302,-16)" stroke="url(#linearGradient5)">
      <ellipse rx="40" ry="20" clip-path="url(#clipPath2)" cx="504.6" cy="329.6" stroke="none"/>
    </g>
    <g text-rendering="geometricPrecision" stroke-miterlimit="1.45" shape-rendering="geometricPrecision" transform="matrix(1,0,0,1,-302,-16)" stroke-linecap="butt">
      <ellipse rx="40" fill="none" ry="20" clip-path="url(#clipPath2)" cx="504.6" cy="329.6"/>
      <text x="483.3275" xml:space="preserve" y="334.3725" clip-path="url(#clipPath2)" font-family="sans-serif" stroke="none">Selesai</text>
    </g>
    <g fill="url(#linearGradient6)" text-rendering="geometricPrecision" shape-rendering="geometricPrecision" transform="matrix(1,0,0,1,-302,-16)" stroke="url(#linearGradient6)">
      <path d="M474.8 239.6 L544.6 239.6 L534.4 279.6 L464.6 279.6 Z" stroke="none" clip-path="url(#clipPath2)"/>
    </g>
    <g text-rendering="geometricPrecision" stroke-miterlimit="1.45" shape-rendering="geometricPrecision" transform="matrix(1,0,0,1,-302,-16)" stroke-linecap="butt">
      <path fill="none" d="M474.8 239.6 L544.6 239.6 L534.4 279.6 L464.6 279.6 Z" clip-path="url(#clipPath2)"/>
      <text x="481.2973" xml:space="preserve" y="264.3725" clip-path="url(#clipPath2)" font-family="sans-serif" stroke="none">number</text>
    </g>
    <g fill="url(#linearGradient7)" text-rendering="geometricPrecision" shape-rendering="geometricPrecision" transform="matrix(1,0,0,1,-302,-16)" stroke="url(#linearGradient7)">
      <path d="M328 165.4 L397.8 165.4 L387.6 205.4 L317.8 205.4 Z" stroke="none" clip-path="url(#clipPath2)"/>
    </g>
    <g text-rendering="geometricPrecision" stroke-miterlimit="1.45" shape-rendering="geometricPrecision" transform="matrix(1,0,0,1,-302,-16)" stroke-linecap="butt">
      <path fill="none" d="M328 165.4 L397.8 165.4 L387.6 205.4 L317.8 205.4 Z" clip-path="url(#clipPath2)"/>
      <text x="334.4973" xml:space="preserve" y="190.1725" clip-path="url(#clipPath2)" font-family="sans-serif" stroke="none">number</text>
    </g>
    <g fill="url(#linearGradient8)" text-rendering="geometricPrecision" shape-rendering="geometricPrecision" transform="matrix(1,0,0,1,-302,-16)" stroke="url(#linearGradient8)">
      <circle r="20" clip-path="url(#clipPath2)" cx="504.6" cy="51.6" stroke="none"/>
    </g>
    <g text-rendering="geometricPrecision" stroke-miterlimit="1.45" shape-rendering="geometricPrecision" transform="matrix(1,0,0,1,-302,-16)" stroke-linecap="butt">
      <circle fill="none" r="20" clip-path="url(#clipPath2)" cx="504.6" cy="51.6"/>
      <text x="500.4984" xml:space="preserve" y="56.3725" clip-path="url(#clipPath2)" font-family="sans-serif" stroke="none">A</text>
    </g>
    <g fill="url(#linearGradient9)" text-rendering="geometricPrecision" shape-rendering="geometricPrecision" transform="matrix(1,0,0,1,-302,-16)" stroke="url(#linearGradient9)">
      <circle r="20" clip-path="url(#clipPath2)" cx="357.8" cy="255.4" stroke="none"/>
    </g>
    <g text-rendering="geometricPrecision" stroke-miterlimit="1.45" shape-rendering="geometricPrecision" transform="matrix(1,0,0,1,-302,-16)" stroke-linecap="butt">
      <circle fill="none" r="20" clip-path="url(#clipPath2)" cx="357.8" cy="255.4"/>
      <text x="353.6984" xml:space="preserve" y="260.1725" clip-path="url(#clipPath2)" font-family="sans-serif" stroke="none">A</text>
    </g>
    <g text-rendering="geometricPrecision" stroke-miterlimit="1.45" shape-rendering="geometricPrecision" transform="matrix(1,0,0,1,-302,-16)" stroke-linecap="butt">
      <path fill="none" d="M504.6 142.0248 L504.6 168.4076" clip-path="url(#clipPath2)"/>
    </g>
    <g text-rendering="geometricPrecision" stroke-miterlimit="1.45" shape-rendering="geometricPrecision" transform="matrix(1,0,0,1,-302,-16)" stroke-linecap="butt">
      <path d="M504.6 176.4076 L509.6 164.4076 L504.6 167.4076 L499.6 164.4076 Z" stroke="none" clip-path="url(#clipPath2)"/>
      <path fill="none" d="M357.8 83.2115 L357.8 94.0376" clip-path="url(#clipPath2)"/>
      <path d="M357.8 102.0376 L362.8 90.0376 L357.8 93.0376 L352.8 90.0376 Z" clip-path="url(#clipPath2)" stroke="none"/>
      <path fill="none" d="M504.6 216.4277 L504.6 231.5738" clip-path="url(#clipPath2)"/>
      <path d="M504.6 239.5738 L509.6 227.5738 L504.6 230.5738 L499.6 227.5738 Z" clip-path="url(#clipPath2)" stroke="none"/>
      <path fill="none" d="M581.4401 116.8 L627.2 116.8 L627.2 259.6 L547.4703 259.6" clip-path="url(#clipPath2)"/>
      <path d="M539.4703 259.6 L551.4703 264.6 L548.4703 259.6 L551.4703 254.6 Z" clip-path="url(#clipPath2)" stroke="none"/>
      <text x="588.4" xml:space="preserve" y="91.5725" clip-path="url(#clipPath2)" font-family="sans-serif" stroke="none">F</text>
      <text x="524.3514" xml:space="preserve" y="157.1725" clip-path="url(#clipPath2)" font-family="sans-serif" stroke="none">T</text>
      <path fill="none" d="M504.6 279.5951 L504.6 301.6273" clip-path="url(#clipPath2)"/>
      <path d="M504.6 309.6273 L509.6 297.6273 L504.6 300.6273 L499.6 297.6273 Z" clip-path="url(#clipPath2)" stroke="none"/>
      <path fill="none" d="M357.8 142.0292 L357.8 157.3664" clip-path="url(#clipPath2)"/>
      <path d="M357.8 165.3664 L362.8 153.3664 L357.8 156.3664 L352.8 153.3664 Z" clip-path="url(#clipPath2)" stroke="none"/>
      <path fill="none" d="M504.6 71.6248 L504.6 83.6095" clip-path="url(#clipPath2)"/>
      <path d="M504.6 91.6095 L509.6 79.6095 L504.6 82.6095 L499.6 79.6095 Z" clip-path="url(#clipPath2)" stroke="none"/>
      <path fill="none" d="M357.8 205.3951 L357.8 227.4274" clip-path="url(#clipPath2)"/>
      <path d="M357.8 235.4274 L362.8 223.4274 L357.8 226.4274 L352.8 223.4274 Z" clip-path="url(#clipPath2)" stroke="none"/>
    </g>
  </g>
</svg>
