<?xml version="1.0" encoding="UTF-8"?><svg xmlns="http://www.w3.org/2000/svg" xmlns:xlink="http://www.w3.org/1999/xlink" fill-opacity="1" color-rendering="auto" color-interpolation="auto" text-rendering="auto" stroke="black" stroke-linecap="square" width="211" stroke-miterlimit="10" shape-rendering="auto" stroke-opacity="1" fill="black" stroke-dasharray="none" font-weight="normal" stroke-width="1" height="429" font-family="'Dialog'" font-style="normal" stroke-linejoin="miter" font-size="12px" stroke-dashoffset="0" image-rendering="auto">
  <!--Generated by ySVG 2.5-->
  <defs id="genericDefs"/>
  <g>
    <defs id="defs1">
      <linearGradient x1="276" gradientUnits="userSpaceOnUse" x2="356" y1="57" y2="97" id="linearGradient1" spreadMethod="reflect">
        <stop stop-opacity="1" stop-color="rgb(232,238,247)" offset="0%"/>
        <stop stop-opacity="1" stop-color="rgb(183,201,227)" offset="100%"/>
      </linearGradient>
      <linearGradient x1="276" gradientUnits="userSpaceOnUse" x2="356" y1="415.25" y2="455.25" id="linearGradient2" spreadMethod="reflect">
        <stop stop-opacity="1" stop-color="rgb(232,238,247)" offset="0%"/>
        <stop stop-opacity="1" stop-color="rgb(183,201,227)" offset="100%"/>
      </linearGradient>
      <linearGradient x1="262" gradientUnits="userSpaceOnUse" x2="370" y1="334.25" y2="374.25" id="linearGradient3" spreadMethod="reflect">
        <stop stop-opacity="1" stop-color="rgb(232,238,247)" offset="0%"/>
        <stop stop-opacity="1" stop-color="rgb(183,201,227)" offset="100%"/>
      </linearGradient>
      <linearGradient x1="276" gradientUnits="userSpaceOnUse" x2="356" y1="264.25" y2="304.25" id="linearGradient4" spreadMethod="reflect">
        <stop stop-opacity="1" stop-color="rgb(232,238,247)" offset="0%"/>
        <stop stop-opacity="1" stop-color="rgb(183,201,227)" offset="100%"/>
      </linearGradient>
      <linearGradient x1="262" gradientUnits="userSpaceOnUse" x2="370" y1="121" y2="161" id="linearGradient5" spreadMethod="reflect">
        <stop stop-opacity="1" stop-color="rgb(232,238,247)" offset="0%"/>
        <stop stop-opacity="1" stop-color="rgb(183,201,227)" offset="100%"/>
      </linearGradient>
      <linearGradient x1="276" gradientUnits="userSpaceOnUse" x2="356" y1="191" y2="231" id="linearGradient6" spreadMethod="reflect">
        <stop stop-opacity="1" stop-color="rgb(232,238,247)" offset="0%"/>
        <stop stop-opacity="1" stop-color="rgb(183,201,227)" offset="100%"/>
      </linearGradient>
      <clipPath clipPathUnits="userSpaceOnUse" id="clipPath1">
        <path d="M0 0 L211 0 L211 429 L0 429 L0 0 Z"/>
      </clipPath>
      <clipPath clipPathUnits="userSpaceOnUse" id="clipPath2">
        <path d="M174 42 L385 42 L385 471 L174 471 L174 42 Z"/>
      </clipPath>
    </defs>
    <g fill="url(#linearGradient1)" text-rendering="geometricPrecision" shape-rendering="geometricPrecision" transform="matrix(1,0,0,1,-174,-42)" stroke="url(#linearGradient1)">
      <ellipse rx="40" ry="20" clip-path="url(#clipPath2)" cx="316" cy="77" stroke="none"/>
    </g>
    <g text-rendering="geometricPrecision" stroke-miterlimit="1.45" shape-rendering="geometricPrecision" transform="matrix(1,0,0,1,-174,-42)" stroke-linecap="butt">
      <ellipse rx="40" fill="none" ry="20" clip-path="url(#clipPath2)" cx="316" cy="77"/>
      <text x="300.25" xml:space="preserve" y="81.7725" clip-path="url(#clipPath2)" font-family="sans-serif" stroke="none">Mulai</text>
    </g>
    <g fill="url(#linearGradient2)" text-rendering="geometricPrecision" shape-rendering="geometricPrecision" transform="matrix(1,0,0,1,-174,-42)" stroke="url(#linearGradient2)">
      <ellipse rx="40" ry="20" clip-path="url(#clipPath2)" cx="316" cy="435.25" stroke="none"/>
    </g>
    <g text-rendering="geometricPrecision" stroke-miterlimit="1.45" shape-rendering="geometricPrecision" transform="matrix(1,0,0,1,-174,-42)" stroke-linecap="butt">
      <ellipse rx="40" fill="none" ry="20" clip-path="url(#clipPath2)" cx="316" cy="435.25"/>
      <text x="294.7275" xml:space="preserve" y="440.0225" clip-path="url(#clipPath2)" font-family="sans-serif" stroke="none">Selesai</text>
    </g>
    <g fill="url(#linearGradient3)" text-rendering="geometricPrecision" shape-rendering="geometricPrecision" transform="matrix(1,0,0,1,-174,-42)" stroke="url(#linearGradient3)">
      <path d="M316 334.25 L370 354.25 L316 374.25 L262 354.25 Z" stroke="none" clip-path="url(#clipPath2)"/>
    </g>
    <g text-rendering="geometricPrecision" stroke-miterlimit="1.45" shape-rendering="geometricPrecision" transform="matrix(1,0,0,1,-174,-42)" stroke-linecap="butt">
      <path fill="none" d="M316 334.25 L370 354.25 L316 374.25 L262 354.25 Z" clip-path="url(#clipPath2)"/>
      <text x="284.7637" xml:space="preserve" y="359.0225" clip-path="url(#clipPath2)" font-family="sans-serif" stroke="none">angka &gt; 0</text>
    </g>
    <g fill="url(#linearGradient4)" text-rendering="geometricPrecision" shape-rendering="geometricPrecision" transform="matrix(1,0,0,1,-174,-42)" stroke="url(#linearGradient4)">
      <path d="M276 264.25 L356 264.25 L356 304.25 L276 304.25 Z" stroke="none" clip-path="url(#clipPath2)"/>
    </g>
    <g text-rendering="geometricPrecision" stroke-miterlimit="1.45" shape-rendering="geometricPrecision" transform="matrix(1,0,0,1,-174,-42)" stroke-linecap="butt">
      <path fill="none" d="M276 264.25 L356 264.25 L356 304.25 L276 304.25 Z" clip-path="url(#clipPath2)"/>
      <text x="292.2578" xml:space="preserve" y="289.0225" clip-path="url(#clipPath2)" font-family="sans-serif" stroke="none">angka--</text>
    </g>
    <g fill="url(#linearGradient5)" text-rendering="geometricPrecision" shape-rendering="geometricPrecision" transform="matrix(1,0,0,1,-174,-42)" stroke="url(#linearGradient5)">
      <path d="M272 121 L360 121 L370 141 L360 161 L272 161 L262 141 Z" stroke="none" clip-path="url(#clipPath2)"/>
    </g>
    <g text-rendering="geometricPrecision" stroke-miterlimit="1.45" shape-rendering="geometricPrecision" transform="matrix(1,0,0,1,-174,-42)" stroke-linecap="butt">
      <path fill="none" d="M272 121 L360 121 L370 141 L360 161 L272 161 L262 141 Z" clip-path="url(#clipPath2)"/>
      <text x="274.8467" xml:space="preserve" y="145.7725" clip-path="url(#clipPath2)" font-family="sans-serif" stroke="none">int angka = 4</text>
    </g>
    <g fill="url(#linearGradient6)" text-rendering="geometricPrecision" shape-rendering="geometricPrecision" transform="matrix(1,0,0,1,-174,-42)" stroke="url(#linearGradient6)">
      <path d="M286.2 191 L356 191 L345.8 231 L276 231 Z" stroke="none" clip-path="url(#clipPath2)"/>
    </g>
    <g text-rendering="geometricPrecision" stroke-miterlimit="1.45" shape-rendering="geometricPrecision" transform="matrix(1,0,0,1,-174,-42)" stroke-linecap="butt">
      <path fill="none" d="M286.2 191 L356 191 L345.8 231 L276 231 Z" clip-path="url(#clipPath2)"/>
      <text x="297.707" xml:space="preserve" y="215.7725" clip-path="url(#clipPath2)" font-family="sans-serif" stroke="none">angka</text>
    </g>
    <g text-rendering="geometricPrecision" stroke-miterlimit="1.45" shape-rendering="geometricPrecision" transform="matrix(1,0,0,1,-174,-42)" stroke-linecap="butt">
      <path fill="none" d="M316 374.2231 L316 407.2554" clip-path="url(#clipPath2)"/>
    </g>
    <g text-rendering="geometricPrecision" stroke-miterlimit="1.45" shape-rendering="geometricPrecision" transform="matrix(1,0,0,1,-174,-42)" stroke-linecap="butt">
      <path d="M316 415.2554 L321 403.2554 L316 406.2554 L311 403.2554 Z" stroke="none" clip-path="url(#clipPath2)"/>
      <text x="282.5518" xml:space="preserve" y="399.5225" clip-path="url(#clipPath2)" font-family="sans-serif" stroke="none">F</text>
      <path fill="none" d="M316 304.2451 L316 326.2773" clip-path="url(#clipPath2)"/>
      <path d="M316 334.2773 L321 322.2773 L316 325.2773 L311 322.2773 Z" clip-path="url(#clipPath2)" stroke="none"/>
      <path fill="none" d="M316 96.9688 L316 113.0053" clip-path="url(#clipPath2)"/>
      <path d="M316 121.0053 L321 109.0053 L316 112.0053 L311 109.0053 Z" clip-path="url(#clipPath2)" stroke="none"/>
      <path fill="none" d="M316 160.9951 L316 183.0273" clip-path="url(#clipPath2)"/>
      <path d="M316 191.0273 L321 179.0273 L316 182.0273 L311 179.0273 Z" clip-path="url(#clipPath2)" stroke="none"/>
      <path fill="none" d="M262.0132 354.25 L225 354.25 L225 211 L273.1196 211" clip-path="url(#clipPath2)"/>
      <path d="M281.1196 211 L269.1196 206 L272.1196 211 L269.1196 216 Z" clip-path="url(#clipPath2)" stroke="none"/>
      <text x="191.3027" xml:space="preserve" y="287.3975" clip-path="url(#clipPath2)" font-family="sans-serif" stroke="none">T</text>
      <path fill="none" d="M316 230.9935 L316 256.2528" clip-path="url(#clipPath2)"/>
      <path d="M316 264.2528 L321 252.2528 L316 255.2528 L311 252.2528 Z" clip-path="url(#clipPath2)" stroke="none"/>
    </g>
  </g>
</svg>
