<?xml version="1.0" encoding="UTF-8"?><svg xmlns="http://www.w3.org/2000/svg" xmlns:xlink="http://www.w3.org/1999/xlink" fill-opacity="1" color-rendering="auto" color-interpolation="auto" text-rendering="auto" stroke="black" stroke-linecap="square" width="310" stroke-miterlimit="10" shape-rendering="auto" stroke-opacity="1" fill="black" stroke-dasharray="none" font-weight="normal" stroke-width="1" height="421" font-family="'Dialog'" font-style="normal" stroke-linejoin="miter" font-size="12px" stroke-dashoffset="0" image-rendering="auto">
  <!--Generated by ySVG 2.5-->
  <defs id="genericDefs"/>
  <g>
    <defs id="defs1">
      <clipPath clipPathUnits="userSpaceOnUse" id="clipPath1">
        <path d="M0 0 L310 0 L310 421 L0 421 L0 0 Z"/>
      </clipPath>
      <clipPath clipPathUnits="userSpaceOnUse" id="clipPath2">
        <path d="M-10 42 L300 42 L300 463 L-10 463 L-10 42 Z"/>
      </clipPath>
    </defs>
    <g fill="rgb(255,255,153)" text-rendering="geometricPrecision" shape-rendering="geometricPrecision" transform="matrix(1,0,0,1,10,-42)" stroke="rgb(255,255,153)">
      <rect x="105" y="57" clip-path="url(#clipPath2)" width="80" rx="20" ry="20" height="40" stroke="none"/>
    </g>
    <g text-rendering="geometricPrecision" stroke-miterlimit="1.45" shape-rendering="geometricPrecision" transform="matrix(1,0,0,1,10,-42)" stroke-linecap="butt">
      <rect x="105" y="57" clip-path="url(#clipPath2)" fill="none" width="80" rx="20" ry="20" height="40"/>
      <text x="131.5117" xml:space="preserve" y="81.5352" clip-path="url(#clipPath2)" font-family="sans-serif" stroke="none">Start</text>
    </g>
    <g fill="rgb(255,255,153)" text-rendering="geometricPrecision" shape-rendering="geometricPrecision" transform="matrix(1,0,0,1,10,-42)" stroke="rgb(255,255,153)">
      <path d="M105.4 136.5 L205 136.5 L184.6 216.5 L85 216.5 Z" stroke="none" clip-path="url(#clipPath2)"/>
    </g>
    <g text-rendering="geometricPrecision" stroke-miterlimit="1.45" shape-rendering="geometricPrecision" transform="matrix(1,0,0,1,10,-42)" stroke-linecap="butt">
      <path fill="none" d="M105.4 136.5 L205 136.5 L184.6 216.5 L85 216.5 Z" clip-path="url(#clipPath2)"/>
      <text x="129.8037" xml:space="preserve" y="159.8359" clip-path="url(#clipPath2)" font-family="sans-serif" stroke="none">Input</text>
      <text x="116.1455" xml:space="preserve" y="173.9688" clip-path="url(#clipPath2)" font-family="sans-serif" stroke="none">bilangan1</text>
      <text x="116.1455" xml:space="preserve" y="188.1016" clip-path="url(#clipPath2)" font-family="sans-serif" stroke="none">bilangan2</text>
      <text x="116.1455" xml:space="preserve" y="202.2344" clip-path="url(#clipPath2)" font-family="sans-serif" stroke="none">bilangan3</text>
    </g>
    <g fill="rgb(255,255,153)" text-rendering="geometricPrecision" shape-rendering="geometricPrecision" transform="matrix(1,0,0,1,10,-42)" stroke="rgb(255,255,153)">
      <path d="M5 246.5 L285 246.5 L285 286.5 L5 286.5 Z" stroke="none" clip-path="url(#clipPath2)"/>
    </g>
    <g text-rendering="geometricPrecision" stroke-miterlimit="1.45" shape-rendering="geometricPrecision" transform="matrix(1,0,0,1,10,-42)" stroke-linecap="butt">
      <path fill="none" d="M5 246.5 L285 246.5 L285 286.5 L5 286.5 Z" clip-path="url(#clipPath2)"/>
      <text x="17.9658" xml:space="preserve" y="271.0352" clip-path="url(#clipPath2)" font-family="sans-serif" stroke="none">Total = bilangan1 + bilangan2 + bilangan3</text>
    </g>
    <g fill="rgb(255,255,153)" text-rendering="geometricPrecision" shape-rendering="geometricPrecision" transform="matrix(1,0,0,1,10,-42)" stroke="rgb(255,255,153)">
      <path d="M105.2 324 L195 324 L184.8 364 L95 364 Z" stroke="none" clip-path="url(#clipPath2)"/>
    </g>
    <g text-rendering="geometricPrecision" stroke-miterlimit="1.45" shape-rendering="geometricPrecision" transform="matrix(1,0,0,1,10,-42)" stroke-linecap="butt">
      <path fill="none" d="M105.2 324 L195 324 L184.8 364 L95 364 Z" clip-path="url(#clipPath2)"/>
      <text x="109.5068" xml:space="preserve" y="348.5352" clip-path="url(#clipPath2)" font-family="sans-serif" stroke="none">Output total</text>
    </g>
    <g fill="rgb(255,255,153)" text-rendering="geometricPrecision" shape-rendering="geometricPrecision" transform="matrix(1,0,0,1,10,-42)" stroke="rgb(255,255,153)">
      <rect x="105" y="408" clip-path="url(#clipPath2)" width="80" rx="20" ry="20" height="40" stroke="none"/>
    </g>
    <g text-rendering="geometricPrecision" stroke-miterlimit="1.45" shape-rendering="geometricPrecision" transform="matrix(1,0,0,1,10,-42)" stroke-linecap="butt">
      <rect x="105" y="408" clip-path="url(#clipPath2)" fill="none" width="80" rx="20" ry="20" height="40"/>
      <text x="132.0625" xml:space="preserve" y="432.5352" clip-path="url(#clipPath2)" font-family="sans-serif" stroke="none">Stop</text>
    </g>
    <g text-rendering="geometricPrecision" stroke-miterlimit="1.45" shape-rendering="geometricPrecision" transform="matrix(1,0,0,1,10,-42)" stroke-linecap="butt">
      <path fill="none" d="M145 96.968 L145 128.4622" clip-path="url(#clipPath2)"/>
    </g>
    <g text-rendering="geometricPrecision" stroke-miterlimit="1.45" shape-rendering="geometricPrecision" transform="matrix(1,0,0,1,10,-42)" stroke-linecap="butt">
      <path d="M145 136.4622 L150 124.4622 L145 127.4622 L140 124.4622 Z" stroke="none" clip-path="url(#clipPath2)"/>
      <path fill="none" d="M145 216.5342 L145 238.543" clip-path="url(#clipPath2)"/>
      <path d="M145 246.543 L150 234.543 L145 237.543 L140 234.543 Z" clip-path="url(#clipPath2)" stroke="none"/>
      <path fill="none" d="M145 286.5183 L145 315.9881" clip-path="url(#clipPath2)"/>
      <path d="M145 323.9881 L150 311.9881 L145 314.9881 L140 311.9881 Z" clip-path="url(#clipPath2)" stroke="none"/>
      <path fill="none" d="M145 363.9746 L145 400.0233" clip-path="url(#clipPath2)"/>
      <path d="M145 408.0233 L150 396.0233 L145 399.0233 L140 396.0233 Z" clip-path="url(#clipPath2)" stroke="none"/>
    </g>
  </g>
</svg>
