<?xml version="1.0" encoding="UTF-8"?><svg xmlns="http://www.w3.org/2000/svg" xmlns:xlink="http://www.w3.org/1999/xlink" fill-opacity="1" color-rendering="auto" color-interpolation="auto" text-rendering="auto" stroke="black" stroke-linecap="square" width="292" stroke-miterlimit="10" shape-rendering="auto" stroke-opacity="1" fill="black" stroke-dasharray="none" font-weight="normal" stroke-width="1" height="265" font-family="'Dialog'" font-style="normal" stroke-linejoin="miter" font-size="12px" stroke-dashoffset="0" image-rendering="auto">
  <!--Generated by ySVG 2.5-->
  <defs id="genericDefs"/>
  <g>
    <defs id="defs1">
      <clipPath clipPathUnits="userSpaceOnUse" id="clipPath1">
        <path d="M0 0 L292 0 L292 265 L0 265 L0 0 Z"/>
      </clipPath>
      <clipPath clipPathUnits="userSpaceOnUse" id="clipPath2">
        <path d="M46 84 L338 84 L338 349 L46 349 L46 84 Z"/>
      </clipPath>
    </defs>
    <g fill="rgb(255,255,153)" text-rendering="geometricPrecision" shape-rendering="geometricPrecision" transform="matrix(1,0,0,1,-46,-84)" stroke="rgb(255,255,153)">
      <path d="M190 119 L230 139 L190 159 L150 139 Z" stroke="none" clip-path="url(#clipPath2)"/>
    </g>
    <g text-rendering="geometricPrecision" stroke-miterlimit="1.45" shape-rendering="geometricPrecision" transform="matrix(1,0,0,1,-46,-84)" stroke-linecap="butt">
      <path fill="none" d="M190 119 L230 139 L190 159 L150 139 Z" clip-path="url(#clipPath2)"/>
      <text x="163.9404" xml:space="preserve" y="143.5352" clip-path="url(#clipPath2)" font-family="sans-serif" stroke="none">Kondisi ?</text>
    </g>
    <g fill="rgb(255,255,153)" text-rendering="geometricPrecision" shape-rendering="geometricPrecision" transform="matrix(1,0,0,1,-46,-84)" stroke="rgb(255,255,153)">
      <path d="M61 200 L141 200 L141 240 L61 240 Z" stroke="none" clip-path="url(#clipPath2)"/>
    </g>
    <g text-rendering="geometricPrecision" stroke-miterlimit="1.45" shape-rendering="geometricPrecision" transform="matrix(1,0,0,1,-46,-84)" stroke-linecap="butt">
      <path fill="none" d="M61 200 L141 200 L141 240 L61 240 Z" clip-path="url(#clipPath2)"/>
      <text x="76.8711" xml:space="preserve" y="224.5352" clip-path="url(#clipPath2)" font-family="sans-serif" stroke="none">Proses a</text>
    </g>
    <g fill="rgb(255,255,153)" text-rendering="geometricPrecision" shape-rendering="geometricPrecision" transform="matrix(1,0,0,1,-46,-84)" stroke="rgb(255,255,153)">
      <path d="M243 200 L323 200 L323 240 L243 240 Z" stroke="none" clip-path="url(#clipPath2)"/>
    </g>
    <g text-rendering="geometricPrecision" stroke-miterlimit="1.45" shape-rendering="geometricPrecision" transform="matrix(1,0,0,1,-46,-84)" stroke-linecap="butt">
      <path fill="none" d="M243 200 L323 200 L323 240 L243 240 Z" clip-path="url(#clipPath2)"/>
      <text x="258.4082" xml:space="preserve" y="224.5352" clip-path="url(#clipPath2)" font-family="sans-serif" stroke="none">Proses b</text>
    </g>
    <g fill="rgb(255,255,153)" text-rendering="geometricPrecision" shape-rendering="geometricPrecision" transform="matrix(1,0,0,1,-46,-84)" stroke="rgb(255,255,153)">
      <path d="M150 294 L230 294 L230 334 L150 334 Z" stroke="none" clip-path="url(#clipPath2)"/>
    </g>
    <g text-rendering="geometricPrecision" stroke-miterlimit="1.45" shape-rendering="geometricPrecision" transform="matrix(1,0,0,1,-46,-84)" stroke-linecap="butt">
      <path fill="none" d="M150 294 L230 294 L230 334 L150 334 Z" clip-path="url(#clipPath2)"/>
      <text x="166.1113" xml:space="preserve" y="318.5352" clip-path="url(#clipPath2)" font-family="sans-serif" stroke="none">Proses c</text>
    </g>
    <g text-rendering="geometricPrecision" stroke-miterlimit="1.45" shape-rendering="geometricPrecision" transform="matrix(1,0,0,1,-46,-84)" stroke-linecap="butt">
      <path fill="none" d="M149.9761 139 L101 139 L101 192.0269" clip-path="url(#clipPath2)"/>
    </g>
    <g text-rendering="geometricPrecision" stroke-miterlimit="1.45" shape-rendering="geometricPrecision" transform="matrix(1,0,0,1,-46,-84)" stroke-linecap="butt">
      <path d="M101 200.0269 L106 188.0269 L101 191.0269 L96 188.0269 Z" stroke="none" clip-path="url(#clipPath2)"/>
      <text x="116.3091" xml:space="preserve" y="113.5352" clip-path="url(#clipPath2)" font-family="sans-serif" stroke="none">T</text>
      <path fill="none" d="M230.0063 139 L283 139 L283 192.0269" clip-path="url(#clipPath2)"/>
      <path d="M283 200.0269 L288 188.0269 L283 191.0269 L278 188.0269 Z" clip-path="url(#clipPath2)" stroke="none"/>
      <text x="258.3916" xml:space="preserve" y="113.5352" clip-path="url(#clipPath2)" font-family="sans-serif" stroke="none">F</text>
      <path fill="none" d="M283 239.9658 L283 314 L238.0063 314" clip-path="url(#clipPath2)"/>
      <path d="M230.0063 314 L242.0063 319 L239.0063 314 L242.0063 309 Z" clip-path="url(#clipPath2)" stroke="none"/>
      <path fill="none" d="M101 239.9658 L101 314 L141.9761 314" clip-path="url(#clipPath2)"/>
      <path d="M149.9761 314 L137.9761 309 L140.9761 314 L137.9761 319 Z" clip-path="url(#clipPath2)" stroke="none"/>
    </g>
  </g>
</svg>
