<?xml version="1.0" encoding="UTF-8"?><svg xmlns="http://www.w3.org/2000/svg" xmlns:xlink="http://www.w3.org/1999/xlink" fill-opacity="1" color-rendering="auto" color-interpolation="auto" text-rendering="auto" stroke="black" stroke-linecap="square" width="271" stroke-miterlimit="10" shape-rendering="auto" stroke-opacity="1" fill="black" stroke-dasharray="none" font-weight="normal" stroke-width="1" height="285" font-family="'Dialog'" font-style="normal" stroke-linejoin="miter" font-size="12px" stroke-dashoffset="0" image-rendering="auto">
  <!--Generated by ySVG 2.5-->
  <defs id="genericDefs"/>
  <g>
    <defs id="defs1">
      <clipPath clipPathUnits="userSpaceOnUse" id="clipPath1">
        <path d="M0 0 L271 0 L271 285 L0 285 L0 0 Z"/>
      </clipPath>
      <clipPath clipPathUnits="userSpaceOnUse" id="clipPath2">
        <path d="M305 102 L576 102 L576 387 L305 387 L305 102 Z"/>
      </clipPath>
    </defs>
    <g fill="rgb(255,255,153)" text-rendering="geometricPrecision" shape-rendering="geometricPrecision" transform="matrix(1,0,0,1,-305,-102)" stroke="rgb(255,255,153)">
      <path d="M447 137 L487 157 L447 177 L407 157 Z" stroke="none" clip-path="url(#clipPath2)"/>
    </g>
    <g text-rendering="geometricPrecision" stroke-miterlimit="1.45" shape-rendering="geometricPrecision" transform="matrix(1,0,0,1,-305,-102)" stroke-linecap="butt">
      <path fill="none" d="M447 137 L487 157 L447 177 L407 157 Z" clip-path="url(#clipPath2)"/>
      <text x="420.9404" xml:space="preserve" y="161.5352" clip-path="url(#clipPath2)" font-family="sans-serif" stroke="none">Kondisi ?</text>
    </g>
    <g fill="rgb(255,255,153)" text-rendering="geometricPrecision" shape-rendering="geometricPrecision" transform="matrix(1,0,0,1,-305,-102)" stroke="rgb(255,255,153)">
      <path d="M407 247.5 L487 247.5 L487 287.5 L407 287.5 Z" stroke="none" clip-path="url(#clipPath2)"/>
    </g>
    <g text-rendering="geometricPrecision" stroke-miterlimit="1.45" shape-rendering="geometricPrecision" transform="matrix(1,0,0,1,-305,-102)" stroke-linecap="butt">
      <path fill="none" d="M407 247.5 L487 247.5 L487 287.5 L407 287.5 Z" clip-path="url(#clipPath2)"/>
      <text x="422.8711" xml:space="preserve" y="272.0352" clip-path="url(#clipPath2)" font-family="sans-serif" stroke="none">Proses a</text>
    </g>
    <g fill="rgb(255,255,153)" text-rendering="geometricPrecision" shape-rendering="geometricPrecision" transform="matrix(1,0,0,1,-305,-102)" stroke="rgb(255,255,153)">
      <path d="M407 332 L487 332 L487 372 L407 372 Z" stroke="none" clip-path="url(#clipPath2)"/>
    </g>
    <g text-rendering="geometricPrecision" stroke-miterlimit="1.45" shape-rendering="geometricPrecision" transform="matrix(1,0,0,1,-305,-102)" stroke-linecap="butt">
      <path fill="none" d="M407 332 L487 332 L487 372 L407 372 Z" clip-path="url(#clipPath2)"/>
      <text x="422.4082" xml:space="preserve" y="356.5352" clip-path="url(#clipPath2)" font-family="sans-serif" stroke="none">Proses b</text>
    </g>
    <g text-rendering="geometricPrecision" stroke-miterlimit="1.45" shape-rendering="geometricPrecision" transform="matrix(1,0,0,1,-305,-102)" stroke-linecap="butt">
      <path fill="none" d="M447 176.9904 L447 239.48" clip-path="url(#clipPath2)"/>
    </g>
    <g text-rendering="geometricPrecision" stroke-miterlimit="1.45" shape-rendering="geometricPrecision" transform="matrix(1,0,0,1,-305,-102)" stroke-linecap="butt">
      <path d="M447 247.48 L452 235.48 L447 238.48 L442 235.48 Z" stroke="none" clip-path="url(#clipPath2)"/>
      <text x="473.2061" xml:space="preserve" y="216.7852" clip-path="url(#clipPath2)" font-family="sans-serif" stroke="none">T</text>
      <path fill="none" d="M406.9714 267.5 L320 267.5 L320 157 L398.9714 157" clip-path="url(#clipPath2)"/>
      <path d="M406.9714 157 L394.9714 152 L397.9714 157 L394.9714 162 Z" clip-path="url(#clipPath2)" stroke="none"/>
      <path fill="none" d="M486.9946 157 L561 157 L561 352 L494.9946 352" clip-path="url(#clipPath2)"/>
      <path d="M486.9946 352 L498.9946 357 L495.9946 352 L498.9946 347 Z" clip-path="url(#clipPath2)" stroke="none"/>
      <text x="525.8916" xml:space="preserve" y="131.5352" clip-path="url(#clipPath2)" font-family="sans-serif" stroke="none">F</text>
    </g>
  </g>
</svg>
